<svg xmlns="http://www.w3.org/2000/svg" viewBox="0 0 500 500"><path fill="#039" d="M0 0h500v500H0z"/><g fill="#fc0"><path d="M250 83.3l15.6 48 50.4 7.3-36.5 35.6 8.6 50.3-48.1-25.3-48.1 25.3 8.6-50.3-36.5-35.6 50.4-7.3z"/><path d="M250 416.7l-15.6-48-50.4-7.3 36.5-35.6-8.6-50.3 48.1 25.3 48.1-25.3-8.6 50.3 36.5 35.6-50.4 7.3z"/><path d="M83.3 250l48-15.6 7.3-50.4 35.6 36.5 50.3-8.6-25.3 48.1 25.3 48.1-50.3-8.6-35.6 36.5-7.3-50.4z"/><path d="M416.7 250l-48 15.6-7.3 50.4-35.6-36.5-50.3 8.6 25.3-48.1-25.3-48.1 50.3 8.6 35.6-36.5 7.3 50.4z"/><path d="M132 132l42.2 26.6 26.6-42.2 16.9 48.2 46.1 21.2-46.1 21.2-16.9 48.2-26.6-42.2L132 239.8l21.2-46.1z"/><path d="M368 368l-42.2-26.6-26.6 42.2-16.9-48.2-46.1-21.2 46.1-21.2 16.9-48.2 26.6 42.2L368 260.2l-21.2 46.1z"/><path d="M132 368l26.6-42.2-42.2-26.6 48.2-16.9 21.2-46.1 21.2 46.1 48.2 16.9-42.2 26.6 26.6 42.2-46.1-21.2z"/><path d="M368 132l-26.6 42.2 42.2 26.6-48.2 16.9-21.2 46.1-21.2-46.1-48.2-16.9 42.2-26.6-26.6-42.2 46.1 21.2z"/></g></svg>
