<?xml version="1.0" encoding="UTF-8"?>
<svg id="Layer_2" data-name="Layer 2" xmlns="http://www.w3.org/2000/svg" viewBox="0 0 779.72 205.18">
  <defs>
    <style>
      .cls-1 {
        fill: #bf0a30;
      }

      .cls-2 {
        fill: #00205b;
      }
    </style>
  </defs>
  <g id="Layer_1-2" data-name="Layer 1">
    <g>
      <g>
        <path class="cls-2" d="M190.82,97.59c2.47-2.79,5.36-5.22,7.84-7.99,7.18-8.01,18.44-22.45,13.55-33.71-2.2-5.07-6.57-6.91-11.15-9.33.56-.33,1.47-1.38,2.05-1.42.89-.05,5.55,1.53,6.66,1.97,5.07,2.03,8.22,4.85,9.95,8.14,6.59,12.55-9.38,33.3-11.64,36.09-2.77,3.44-5.4,5.94-7.13,7.49-.78-.45-1.76-.91-2.94-1.24-3.08-.87-5.77-.38-7.2,0Z"/>
        <path class="cls-2" d="M214.82,90.87c1.13,7.23,1.63,14.58,1.29,21.93-.42,9.22-2.88,20.16-6.58,28.61-.24.55-.59,1.67-1.11,1.93.07-.87.19-2.27.33-3.98,1.72-21.45,1.16-26.6-.97-31.51-.56-1.28-1.54-3.29-3.23-5.57,3.42-3.8,6.84-7.6,10.26-11.4Z"/>
        <path class="cls-2" d="M202.03,77.11c-2.81-7.59-6.62-14.85-11.51-21.3-.09-.4,5.53-5.48,5.93-5.57.47-.1.51.28.73.52,1.46,1.55,4.24,6.3,5.43,8.33,1.81,3.11,3.33,6.34,4.81,9.61.12.77-3.39,6.27-4.1,7.29-.33.48-.54,1.23-1.28,1.11Z"/>
        <path class="cls-2" d="M162.03,97.59l-2.19-19.29.75-.86,6.71-4.16c1.65,7.99,2.94,16.14,3.04,24.32h-8.32Z"/>
        <g>
          <path class="cls-2" d="M121.07,159.98v36.8l2.88-.32.64,8.64c-10.06.27-19.59.03-29.44-2.08-14.99-3.2-30.34-10.58-41.59-20.96,3.53,0,6.96-1.05,10.36-1.86,7.76,5.77,16.8,10.14,26.12,12.73-3.1-3.48-6.19-7.07-8.58-11.1-.41-.69-2.57-4.64-2.63-5.06-.09-.72.11-.37.48-.48,2.53-.8,5.1-1.51,7.64-2.26,5.39,10.1,13.9,20.59,25.8,22.74l-.28-32.75,8.6-4.04Z"/>
          <path class="cls-2" d="M123.95,143.66v9.44c-11.37,6.02-23.22,11.21-35.35,15.52-16.17,5.76-49.41,15.67-64.9,6.65-12.2-7.1-8.6-21.24-2.46-31.29.26.01.65-.13.64.16-.08,1.83-1.5,5.26-1.84,7.44-4.73,30.58,43.49,16.55,58.63,11.6,15.65-5.12,30.61-12.12,45.27-19.52Z"/>
          <path class="cls-2" d="M71.8,121.59c.23,9.5,2.2,18.89,4.16,28.16,4.87-1.02,10.05-1.95,15.52-2.74,6.29-.91,12.27-1.54,17.9-1.95-8.74,4.96-19.07,9.88-30.95,13.94-5.56,1.91-16.15,5.23-29.88,7.49-3.49.57-6.45.96-8.63,1.22-3.84-4.24-8.69-10.49-12.77-18.9-3.62-7.47-5.51-14.31-6.54-19.54,2.72.59,5.54.21,8.3.33,2.57,10.61,7.7,21.85,14.6,30.35.63.77,1.81,2.7,2.77,2.55.69-.11,3.83-2.36,4.82-2.89,5.4-2.9,11.02-5.31,16.8-7.35-.8-5.28-2.29-10.52-3.11-15.84-.6-3.91-.94-7.85-1.35-11.79l.55-.76,7.78-2.29Z"/>
          <path class="cls-2" d="M121.07,139.34c-.79.71-8.31,5-8.64,4.64l.32-33.28-11.2-.48,18.73-9.11c.86-.23.26,1.59.95,1.59h4.96c-.63,1.42-1.37,2.6-1.76,4.16-.23.89-.34,3.7-.48,3.84-.11.11-2.38-.08-2.88,0v28.64Z"/>
          <path class="cls-1" d="M135.39,103.1l60.73-.09c3.97.22,6.53,3.36,6.88,7.2v87.38c-.19,3.31-3.27,6.27-6.56,6.56h-60.5c-3.07-.27-5.44-2.26-6.33-5.19-.51-29.74-.07-59.59-.22-89.37.51-3.27,2.82-5.67,6-6.48ZM180.27,164.78c.57.41,3.48-3.11,3.44-3.94l-6.27-19.85c1.71-2.59,7.49-9.22,7.3-12.19-.06-.99-1.37-2.38-2.39-2.45-3.74-.25-8,7.68-10.63,9.88l-17.86-.24c-3.63-1.28-5.18.77-6.55,3.82l17.6,5.6-8,11.52c-1.76.53-6.25,0-7.5,1.14-3.09,2.79,1.31,3,3.14,3.86,2.02.95,3.98,2.14,5.45,3.83.81.93,2.15,3.59,2.89,4.16,1.03.8,2.4-1.08,2.43-2.09.04-1.58-2.11-6.04-1.89-6.99l8.75-11.1,10.08,15.04ZM187.47,181.74h-42.72v5.76h42.72v-5.76Z"/>
        </g>
        <g>
          <path class="cls-2" d="M112.75,67.51c-11.94.05-23.87-1.36-35.51-3.84-1.51,5.85-2.93,12.22-4.11,19.07-1.23,7.09-2.06,13.77-2.61,19.97-10.62,3.59-22.77,6.64-36.3,8.33-2.94.37-5.82.66-8.63.87-1.92-.64-7.21.22-7.55-2.31-.43-3.22.27-10.3.69-13.73C26.2,35.14,87.98-3.09,146.28,14.63c9.78,2.98,21.43,9.05,30.12,15.64,2.64,2,5.02,4.41,7.71,6.21-.41,1.3-1.72,1.59-2.4,2.23-.91.87-2.58,3.33-3.81,3.22-.15-.01-1.69-1.76-2.11-2.1-9.62-7.85-20.61-14.08-32.64-17.43l4.28,5.15c4.23,5.46,7.72,11.21,10.71,17.45,1.46,3.04,2.45,6.36,4.21,9.22-5.49,4.21-11.31,7.97-17.19,11.62-8.02.62-16.04,1.71-24.08,1.67v12.64l-8.32,4.64v-17.28ZM112.75,18.88c-15.47,2.58-24.29,18.16-30.45,31.14l-2.04,5.67c8.25,2.07,16.81,2.78,25.28,3.52h7.06s.15-40.33.15-40.33ZM121.07,18.88v40.32c10.9-.12,22.04-.89,32.65-3.37-5.89-15.16-15.56-32.91-32.65-36.94ZM91,22.08c-14.71,4.03-27.78,12.42-38.72,22.87l-.31.8c6.36,3.17,12.84,6.37,19.84,7.87,4.69-11.44,10.4-22.72,19.19-31.54ZM26.36,102.71h36.8c-.09-13.98,2.32-27.88,6.08-41.27-8.11-1.86-15.74-5.44-22.89-9.62-.5,0-3.1,3.68-3.61,4.39-9.63,13.59-15.5,29.76-16.38,46.5Z"/>
          <path class="cls-1" d="M231.46,0l-3.52,31.35c-.74.19-.53-.14-.73-.4-2.22-2.84-4.1-6.46-6.22-9.43-.16-.22.07-.55-.55-.4-26.75,28.76-59.02,53.16-93.59,71.83-22.71,12.26-49.59,23.96-74.87,29.43-13.17,2.85-43.35,7.29-50.41-7.83-6.3-13.5,7.95-29.37,16.97-38.08.54.34-.13.7-.32.95-5.76,7.45-15.74,22.13-9.38,31.47,8.59,12.62,37.21,5.66,49.61,2.36,32.95-8.76,66.36-26.01,94.55-44.95,22.01-14.79,42.85-31.65,60.56-51.43l-12.16-5.91L231.46,0Z"/>
          <path class="cls-2" d="M192.43,30.07c-3.11-12.23-17.59-14.17-28.32-14.08l-5.6-.63c10.4-1.96,22.65-2.97,32.53,1.54,3.28,1.5,5.96,3.49,7.74,6.67.09.55-5.46,5.72-6.35,6.5Z"/>
        </g>
      </g>
      <g>
        <path class="cls-2" d="M244.01,83.27h20.5l20.65,50.6,20.65-50.6h19.78l-32.57,75.18h-16.29l-32.72-75.18Z"/>
        <path class="cls-2" d="M330.24,64.66c0-5.96,4.8-10.47,10.76-10.47s10.47,4.51,10.47,10.47-4.51,10.61-10.47,10.61-10.76-4.65-10.76-10.61ZM350.46,158.45h-19.05v-75.18h19.05v75.18Z"/>
        <path class="cls-2" d="M359.18,134.75h18.03c1.89,7.56,8.58,10.76,16.72,10.76,6.98,0,10.76-3.2,10.76-7.71,0-3.05-2.47-5.67-7.56-6.98l-15.56-3.63c-13.96-3.34-21.08-10.62-21.08-22.1,0-14.4,11.92-23.7,28.06-23.7,19.19,0,30.83,11.34,33.01,25.74h-17.88c-2.04-7.85-9.02-11.05-15.27-11.05s-9.31,3.05-9.31,6.98,3.05,6.54,9.01,8l14.4,3.49c13.81,3.34,20.65,10.62,20.65,21.81,0,13.52-11.05,23.85-29.23,23.85-19.78,0-31.84-11.05-34.75-25.45Z"/>
        <path class="cls-2" d="M454.28,114.97l22.1-1.6v-2.91c0-7.42-4.94-11.92-13.81-11.92-6.83,0-13.23,2.18-19.92,6.69l-8-13.52c8.72-6.4,18.76-10.03,30.25-10.03,18.03,0,29.95,10.47,29.95,26.46v29.52c0,2.76,1.45,4.36,4.22,4.36h3.93v16.43h-8.87c-7.27,0-12.79-3.34-15.41-8.87-5.23,6.69-13.52,10.76-23.56,10.76-14.98,0-26.03-9.74-26.03-22.97s9.16-21.23,25.16-22.39ZM459.37,145.8c9.45,0,17.01-6.11,17.01-13.67v-4.8l-19.49,1.74c-6.4.58-9.6,3.2-9.6,8.14,0,5.23,4.94,8.58,12.07,8.58Z"/>
        <path class="cls-1" d="M530.63,83.27v7.12c6.69-5.67,15.12-9.02,24.28-9.02,22.39,0,40.13,17.89,40.13,39.55s-17.74,39.55-40.13,39.55c-9.16,0-17.45-3.34-24.14-8.87v37.37h-19.05v-105.71h18.9ZM553.31,143.76c12.5,0,22.83-10.03,22.83-22.83s-10.32-22.97-22.83-22.97-22.83,10.32-22.83,22.97,10.18,22.83,22.83,22.83Z"/>
        <path class="cls-1" d="M605.51,158.45V56.66h19.05v101.79h-19.05Z"/>
        <path class="cls-1" d="M637.65,83.27h19.05v44.06c0,9.31,6.25,16.14,15.56,16.14s15.7-6.54,15.7-16.14v-44.06h19.05v75.18h-19.05v-6.69c-5.23,5.38-12.51,8.43-20.65,8.43-17.59,0-29.66-12.8-29.66-29.08v-47.84Z"/>
        <path class="cls-1" d="M715.74,134.75h18.03c1.89,7.56,8.58,10.76,16.72,10.76,6.98,0,10.76-3.2,10.76-7.71,0-3.05-2.47-5.67-7.56-6.98l-15.56-3.63c-13.96-3.34-21.08-10.62-21.08-22.1,0-14.4,11.92-23.7,28.06-23.7,19.19,0,30.83,11.34,33.01,25.74h-17.88c-2.04-7.85-9.02-11.05-15.27-11.05s-9.31,3.05-9.31,6.98,3.05,6.54,9.02,8l14.39,3.49c13.81,3.34,20.65,10.62,20.65,21.81,0,13.52-11.05,23.85-29.23,23.85-19.77,0-31.84-11.05-34.75-25.45Z"/>
      </g>
    </g>
  </g>
</svg>