<?xml version="1.0" encoding="UTF-8"?>
<svg id="Layer_2" data-name="Layer 2" xmlns="http://www.w3.org/2000/svg" viewBox="0 0 513.26 135.07">
  <defs>
    <style>
      .cls-1 {
        fill: #fff;
      }

      .cls-2 {
        fill: #c02033;
      }
    </style>
  </defs>
  <g id="Layer_1-2" data-name="Layer 1">
    <g>
      <g>
        <path class="cls-1" d="M125.61,64.24c1.63-1.84,3.53-3.44,5.16-5.26,4.73-5.27,12.14-14.78,8.92-22.19-1.45-3.34-4.33-4.55-7.34-6.14.37-.22.97-.91,1.35-.93.59-.04,3.65,1.01,4.39,1.3,3.33,1.33,5.41,3.19,6.55,5.36,4.34,8.26-6.18,21.92-7.66,23.76-1.83,2.26-3.55,3.91-4.7,4.93-.51-.29-1.16-.6-1.93-.82-2.03-.57-3.8-.25-4.74,0Z"/>
        <path class="cls-1" d="M141.41,59.82c.74,4.76,1.07,9.6.85,14.44-.27,6.07-1.89,13.27-4.33,18.83-.16.36-.39,1.1-.73,1.27.05-.57.13-1.49.22-2.62,1.13-14.12.76-17.51-.64-20.74-.37-.84-1.01-2.16-2.12-3.67,2.25-2.5,4.5-5,6.75-7.5Z"/>
        <path class="cls-1" d="M132.99,50.76c-1.85-5-4.36-9.77-7.58-14.02-.06-.26,3.64-3.61,3.9-3.67.31-.07.33.18.48.34.96,1.02,2.79,4.15,3.57,5.48,1.19,2.04,2.19,4.17,3.16,6.33.08.51-2.23,4.13-2.7,4.8-.22.32-.35.81-.84.73Z"/>
        <path class="cls-1" d="M106.66,64.24l-1.44-12.7.49-.57,4.42-2.74c1.09,5.26,1.93,10.62,2,16.01h-5.48Z"/>
        <g>
          <path class="cls-1" d="M79.7,105.31v24.22l1.9-.21.42,5.69c-6.62.18-12.9.02-19.38-1.37-9.87-2.1-19.97-6.97-27.38-13.8,2.32,0,4.58-.69,6.82-1.23,5.11,3.8,11.06,6.68,17.19,8.38-2.04-2.29-4.08-4.65-5.65-7.31-.27-.46-1.69-3.05-1.73-3.33-.06-.47.07-.24.31-.32,1.66-.53,3.36-.99,5.03-1.49,3.55,6.65,9.15,13.55,16.98,14.97l-.18-21.56,5.66-2.66Z"/>
          <path class="cls-1" d="M81.59,94.57v6.21c-7.48,3.96-15.29,7.38-23.27,10.22-10.65,3.79-32.53,10.31-42.72,4.38-8.03-4.68-5.66-13.98-1.62-20.6.17,0,.43-.09.42.11-.05,1.2-.99,3.46-1.21,4.9-3.11,20.13,28.63,10.9,38.59,7.63,10.3-3.37,20.15-7.98,29.8-12.85Z"/>
          <path class="cls-1" d="M47.26,80.04c.15,6.26,1.45,12.43,2.74,18.53,3.21-.67,6.62-1.28,10.21-1.8,4.14-.6,8.08-1.01,11.78-1.28-5.75,3.27-12.56,6.5-20.37,9.18-3.66,1.25-10.63,3.44-19.67,4.93-2.29.38-4.24.63-5.68.8-2.53-2.79-5.72-6.9-8.41-12.44-2.38-4.92-3.63-9.42-4.31-12.87,1.79.39,3.64.14,5.47.22,1.69,6.98,5.07,14.38,9.61,19.98.41.51,1.19,1.78,1.83,1.68.46-.07,2.52-1.56,3.17-1.91,3.56-1.91,7.26-3.49,11.06-4.84-.52-3.48-1.51-6.92-2.04-10.42-.39-2.58-.62-5.17-.89-7.76l.36-.5,5.12-1.51Z"/>
          <path class="cls-1" d="M79.7,91.72c-.52.47-5.47,3.29-5.69,3.05l.21-21.9-7.37-.32,12.33-6c.56-.15.17,1.05.62,1.05h3.26c-.41.94-.9,1.71-1.16,2.74-.15.58-.22,2.44-.31,2.53-.07.07-1.56-.06-1.9,0v18.85Z"/>
          <path class="cls-2" d="M89.12,67.87l39.97-.06c2.62.14,4.3,2.21,4.53,4.74v57.52c-.13,2.18-2.16,4.13-4.32,4.32h-39.82c-2.02-.18-3.58-1.49-4.16-3.42-.34-19.58-.05-39.22-.15-58.83.34-2.15,1.85-3.73,3.95-4.27ZM118.66,108.47c.37.27,2.29-2.05,2.26-2.6l-4.13-13.06c1.12-1.7,4.93-6.07,4.81-8.02-.04-.65-.9-1.57-1.57-1.61-2.46-.16-5.26,5.06-7,6.5l-11.76-.16c-2.39-.84-3.41.51-4.31,2.52l11.58,3.69-5.27,7.58c-1.16.35-4.11,0-4.94.75-2.03,1.84.86,1.98,2.07,2.54,1.33.62,2.62,1.41,3.59,2.52.53.61,1.42,2.36,1.91,2.74.68.52,1.58-.71,1.6-1.38.03-1.04-1.39-3.97-1.24-4.6l5.76-7.31,6.64,9.9ZM123.41,119.63h-28.12v3.79h28.12v-3.79Z"/>
        </g>
        <g>
          <path class="cls-1" d="M74.22,44.44c-7.86.03-15.71-.89-23.38-2.53-1,3.85-1.93,8.04-2.71,12.55-.81,4.66-1.36,9.06-1.72,13.15-6.99,2.36-14.99,4.37-23.9,5.48-1.94.24-3.83.43-5.68.57-1.26-.42-4.75.15-4.97-1.52-.29-2.12.18-6.78.46-9.04C17.24,23.13,57.91-2.04,96.29,9.63c6.44,1.96,14.11,5.96,19.82,10.29,1.74,1.32,3.3,2.9,5.08,4.09-.27.85-1.14,1.04-1.58,1.47-.6.57-1.7,2.19-2.51,2.12-.1,0-1.11-1.16-1.39-1.39-6.33-5.16-13.56-9.27-21.49-11.47l2.82,3.39c2.78,3.6,5.08,7.38,7.05,11.49.96,2,1.61,4.18,2.77,6.07-3.61,2.77-7.45,5.25-11.32,7.65-5.28.41-10.56,1.12-15.85,1.1v8.32l-5.48,3.05v-11.37ZM74.22,12.42c-10.18,1.7-15.99,11.95-20.05,20.5l-1.35,3.73c5.43,1.36,11.07,1.83,16.64,2.32h4.65s.1-26.55.1-26.55ZM79.7,12.43v26.54c7.18-.08,14.51-.59,21.49-2.22-3.88-9.98-10.24-21.66-21.49-24.32ZM59.9,14.53c-9.68,2.65-18.28,8.18-25.49,15.05l-.2.53c4.18,2.09,8.45,4.19,13.06,5.18,3.08-7.53,6.85-14.95,12.63-20.76ZM17.35,67.61h24.22c-.06-9.2,1.53-18.35,4-27.17-5.34-1.23-10.36-3.58-15.07-6.33-.33,0-2.04,2.42-2.38,2.89-6.34,8.95-10.2,19.59-10.78,30.61Z"/>
          <path class="cls-2" d="M152.36,0l-2.32,20.64c-.49.12-.35-.09-.48-.27-1.46-1.87-2.7-4.25-4.1-6.21-.1-.15.05-.36-.36-.26-17.61,18.93-38.85,35-61.61,47.28-14.95,8.07-32.64,15.77-49.29,19.37-8.67,1.88-28.53,4.8-33.18-5.16-4.15-8.89,5.23-19.33,11.17-25.07.35.22-.09.46-.21.63-3.79,4.9-10.36,14.57-6.18,20.71,5.66,8.31,24.49,3.73,32.66,1.55,21.69-5.77,43.68-17.12,62.24-29.59,14.49-9.74,28.21-20.83,39.86-33.85l-8-3.89,19.8-5.9Z"/>
          <path class="cls-1" d="M126.67,19.8c-2.05-8.05-11.58-9.33-18.64-9.27l-3.69-.42c6.85-1.29,14.91-1.96,21.41,1.01,2.16.99,3.92,2.3,5.1,4.39.06.36-3.6,3.77-4.18,4.28Z"/>
        </g>
      </g>
      <g>
        <path class="cls-1" d="M160.63,54.81h13.5l13.59,33.31,13.59-33.31h13.02l-21.44,49.48h-10.72l-21.54-49.48Z"/>
        <path class="cls-1" d="M217.39,42.56c0-3.92,3.16-6.89,7.08-6.89s6.89,2.97,6.89,6.89-2.97,6.99-6.89,6.99-7.08-3.06-7.08-6.99ZM230.69,104.3h-12.54v-49.48h12.54v49.48Z"/>
        <path class="cls-1" d="M236.44,88.7h11.87c1.24,4.98,5.65,7.08,11.01,7.08,4.59,0,7.08-2.11,7.08-5.07,0-2.01-1.63-3.73-4.98-4.59l-10.24-2.39c-9.19-2.2-13.88-6.99-13.88-14.55,0-9.48,7.85-15.6,18.47-15.6,12.63,0,20.29,7.47,21.73,16.94h-11.77c-1.34-5.17-5.93-7.27-10.05-7.27s-6.13,2.01-6.13,4.59,2.01,4.31,5.93,5.26l9.48,2.3c9.09,2.2,13.59,6.99,13.59,14.36,0,8.9-7.27,15.7-19.24,15.7-13.02,0-20.96-7.27-22.88-16.75Z"/>
        <path class="cls-1" d="M299.04,75.68l14.55-1.05v-1.91c0-4.88-3.25-7.85-9.09-7.85-4.5,0-8.71,1.44-13.11,4.4l-5.26-8.9c5.74-4.21,12.35-6.6,19.91-6.6,11.87,0,19.72,6.89,19.72,17.42v19.43c0,1.82.96,2.87,2.78,2.87h2.58v10.82h-5.84c-4.79,0-8.42-2.2-10.15-5.84-3.45,4.4-8.9,7.08-15.51,7.08-9.86,0-17.13-6.41-17.13-15.12s6.03-13.97,16.56-14.74ZM302.39,95.97c6.22,0,11.2-4.02,11.2-9v-3.16l-12.83,1.15c-4.21.38-6.32,2.11-6.32,5.36,0,3.45,3.25,5.65,7.94,5.65Z"/>
        <path class="cls-2" d="M349.29,54.81v4.69c4.4-3.73,9.95-5.93,15.98-5.93,14.74,0,26.42,11.77,26.42,26.03s-11.68,26.03-26.42,26.03c-6.03,0-11.49-2.2-15.89-5.84v24.6h-12.54V54.81h12.44ZM364.22,94.63c8.23,0,15.03-6.6,15.03-15.03s-6.8-15.12-15.03-15.12-15.03,6.8-15.03,15.12,6.7,15.03,15.03,15.03Z"/>
        <path class="cls-2" d="M398.59,104.3V37.3h12.54v67h-12.54Z"/>
        <path class="cls-2" d="M419.74,54.81h12.54v29c0,6.13,4.11,10.62,10.24,10.62s10.34-4.31,10.34-10.62v-29h12.54v49.48h-12.54v-4.4c-3.45,3.54-8.23,5.55-13.59,5.55-11.58,0-19.53-8.42-19.53-19.14v-31.49Z"/>
        <path class="cls-2" d="M471.14,88.7h11.87c1.24,4.98,5.65,7.08,11.01,7.08,4.59,0,7.08-2.11,7.08-5.07,0-2.01-1.63-3.73-4.98-4.59l-10.24-2.39c-9.19-2.2-13.88-6.99-13.88-14.55,0-9.48,7.85-15.6,18.47-15.6,12.63,0,20.29,7.47,21.73,16.94h-11.77c-1.34-5.17-5.93-7.27-10.05-7.27s-6.13,2.01-6.13,4.59,2.01,4.31,5.93,5.26l9.48,2.3c9.09,2.2,13.59,6.99,13.59,14.36,0,8.9-7.28,15.7-19.24,15.7-13.02,0-20.96-7.27-22.88-16.75Z"/>
      </g>
    </g>
  </g>
</svg>